<svg width="147" height="61" viewBox="0 0 147 61" fill="none" xmlns="http://www.w3.org/2000/svg">
<path d="M49.3626 25.9901V23.4545H61.3086V25.9901H56.8555V38H53.8157V25.9901H49.3626ZM66.6087 38.2131C65.4865 38.2131 64.5206 37.9858 63.7109 37.5312C62.906 37.072 62.2857 36.4233 61.8501 35.5852C61.4145 34.7424 61.1967 33.7457 61.1967 32.5952C61.1967 31.473 61.4145 30.4882 61.8501 29.6406C62.2857 28.7931 62.8989 28.1326 63.6896 27.6591C64.4851 27.1856 65.4179 26.9489 66.4879 26.9489C67.2076 26.9489 67.8776 27.0649 68.4979 27.2969C69.1229 27.5241 69.6674 27.8674 70.1314 28.3267C70.6001 28.786 70.9647 29.3636 71.2251 30.0597C71.4856 30.7509 71.6158 31.5606 71.6158 32.4886V33.3196H62.4041V31.4446H68.7678C68.7678 31.009 68.6731 30.6231 68.4837 30.2869C68.2943 29.9508 68.0315 29.688 67.6953 29.4986C67.3639 29.3045 66.978 29.2074 66.5376 29.2074C66.0784 29.2074 65.6712 29.3139 65.3161 29.527C64.9657 29.7353 64.6911 30.017 64.4922 30.3722C64.2933 30.7225 64.1915 31.1132 64.1868 31.544V33.3267C64.1868 33.8665 64.2862 34.3329 64.4851 34.7259C64.6887 35.1188 64.9751 35.4219 65.3445 35.6349C65.7138 35.848 66.1518 35.9545 66.6584 35.9545C66.9946 35.9545 67.3023 35.9072 67.5817 35.8125C67.861 35.7178 68.1001 35.5758 68.299 35.3864C68.4979 35.197 68.6494 34.965 68.7536 34.6903L71.5518 34.875C71.4098 35.5473 71.1186 36.1345 70.6783 36.6364C70.2427 37.1335 69.6792 37.5218 68.9879 37.8011C68.3014 38.0758 67.5083 38.2131 66.6087 38.2131ZM78.5192 38.2131C77.4018 38.2131 76.4406 37.9763 75.6357 37.5028C74.8355 37.0246 74.2199 36.3617 73.7891 35.5142C73.3629 34.6667 73.1499 33.6913 73.1499 32.5881C73.1499 31.4706 73.3653 30.4905 73.7962 29.6477C74.2318 28.8002 74.8497 28.1397 75.6499 27.6662C76.45 27.188 77.4018 26.9489 78.505 26.9489C79.4567 26.9489 80.29 27.1217 81.005 27.4673C81.7199 27.813 82.2857 28.2983 82.7024 28.9233C83.1191 29.5483 83.3487 30.2822 83.3913 31.125H80.5362C80.4557 30.5805 80.2427 30.1425 79.897 29.8111C79.5561 29.4749 79.1087 29.3068 78.5547 29.3068C78.0859 29.3068 77.6764 29.4347 77.326 29.6903C76.9804 29.9413 76.7105 30.3082 76.5163 30.7912C76.3222 31.2741 76.2251 31.8589 76.2251 32.5455C76.2251 33.2415 76.3198 33.8333 76.5092 34.321C76.7034 34.8087 76.9756 35.1804 77.326 35.4361C77.6764 35.6918 78.0859 35.8196 78.5547 35.8196C78.9003 35.8196 79.2105 35.7486 79.4851 35.6065C79.7644 35.4645 79.9941 35.2585 80.174 34.9886C80.3587 34.714 80.4794 34.3849 80.5362 34.0014H83.3913C83.344 34.8348 83.1167 35.5687 82.7095 36.2031C82.3071 36.8329 81.7507 37.3253 81.0405 37.6804C80.3303 38.0355 79.4898 38.2131 78.5192 38.2131ZM88.354 31.6932V38H85.3285V23.4545H88.2688V29.0156H88.3967C88.6429 28.3717 89.0406 27.8674 89.5898 27.5028C90.1391 27.1335 90.828 26.9489 91.6566 26.9489C92.4142 26.9489 93.0747 27.1146 93.6381 27.446C94.2063 27.7727 94.6467 28.2438 94.9592 28.8594C95.2764 29.4702 95.4326 30.2017 95.4279 31.054V38H92.4023V31.5938C92.4071 30.9214 92.2366 30.3982 91.891 30.0241C91.5501 29.6501 91.0719 29.4631 90.4563 29.4631C90.0444 29.4631 89.6798 29.5507 89.3626 29.7259C89.0501 29.901 88.8039 30.1567 88.6239 30.4929C88.4487 30.8243 88.3588 31.2244 88.354 31.6932Z" fill="#00A4E5"/>
<path d="M97.8658 38V23.4545H103.604C104.708 23.4545 105.647 23.6652 106.424 24.0866C107.201 24.5033 107.792 25.0833 108.2 25.8267C108.612 26.5653 108.817 27.4176 108.817 28.3835C108.817 29.3494 108.609 30.2017 108.192 30.9403C107.776 31.679 107.172 32.2543 106.381 32.6662C105.595 33.0781 104.644 33.2841 103.526 33.2841H99.8686V30.8196H103.029C103.621 30.8196 104.109 30.7178 104.492 30.5142C104.88 30.3059 105.169 30.0194 105.359 29.6548C105.553 29.2855 105.65 28.8617 105.65 28.3835C105.65 27.9006 105.553 27.4792 105.359 27.1193C105.169 26.7547 104.88 26.473 104.492 26.2741C104.104 26.0705 103.612 25.9688 103.015 25.9688H100.941V38H97.8658ZM113.576 38.206C112.88 38.206 112.26 38.0852 111.715 37.8438C111.171 37.5975 110.74 37.2353 110.423 36.7571C110.11 36.2741 109.954 35.6728 109.954 34.9531C109.954 34.3471 110.065 33.8381 110.288 33.4261C110.51 33.0142 110.813 32.6828 111.197 32.4318C111.58 32.1809 112.016 31.9915 112.504 31.8636C112.996 31.7358 113.512 31.6458 114.052 31.5938C114.686 31.5275 115.198 31.4659 115.586 31.4091C115.974 31.3475 116.256 31.2576 116.431 31.1392C116.606 31.0208 116.694 30.8456 116.694 30.6136V30.571C116.694 30.1212 116.552 29.7732 116.268 29.527C115.988 29.2808 115.591 29.1577 115.075 29.1577C114.53 29.1577 114.097 29.2784 113.775 29.5199C113.453 29.7566 113.24 30.0549 113.136 30.4148L110.337 30.1875C110.479 29.5246 110.759 28.9517 111.175 28.4688C111.592 27.9811 112.129 27.607 112.788 27.3466C113.451 27.0814 114.218 26.9489 115.089 26.9489C115.695 26.9489 116.275 27.0199 116.829 27.1619C117.388 27.304 117.882 27.5241 118.313 27.8224C118.749 28.1207 119.092 28.5043 119.343 28.973C119.594 29.437 119.719 29.9934 119.719 30.642V38H116.85V36.4872H116.765C116.59 36.8281 116.355 37.1288 116.062 37.3892C115.768 37.6449 115.415 37.8461 115.004 37.9929C114.592 38.1349 114.116 38.206 113.576 38.206ZM114.442 36.1179C114.888 36.1179 115.281 36.0303 115.621 35.8551C115.962 35.6752 116.23 35.4337 116.424 35.1307C116.618 34.8277 116.715 34.4844 116.715 34.1009V32.9432C116.621 33.0047 116.49 33.0616 116.325 33.1136C116.164 33.161 115.981 33.206 115.778 33.2486C115.574 33.2865 115.371 33.322 115.167 33.3551C114.963 33.3835 114.779 33.4096 114.613 33.4332C114.258 33.4853 113.948 33.5682 113.683 33.6818C113.417 33.7955 113.211 33.9493 113.065 34.1435C112.918 34.3329 112.844 34.5696 112.844 34.8537C112.844 35.2656 112.994 35.5805 113.292 35.7983C113.595 36.0114 113.978 36.1179 114.442 36.1179ZM127.869 27.0909V29.3636H121.3V27.0909H127.869ZM122.791 24.4773H125.817V34.6477C125.817 34.9271 125.859 35.1449 125.945 35.3011C126.03 35.4527 126.148 35.5592 126.3 35.6207C126.456 35.6823 126.636 35.7131 126.839 35.7131C126.982 35.7131 127.124 35.7012 127.266 35.6776C127.408 35.6491 127.517 35.6278 127.592 35.6136L128.068 37.8651C127.917 37.9124 127.704 37.9669 127.429 38.0284C127.154 38.0947 126.821 38.1349 126.428 38.1491C125.698 38.1776 125.059 38.0805 124.51 37.858C123.965 37.6354 123.542 37.2898 123.239 36.821C122.936 36.3523 122.786 35.7604 122.791 35.0455V24.4773ZM133.1 31.6932V38H130.075V23.4545H133.015V29.0156H133.143C133.389 28.3717 133.787 27.8674 134.336 27.5028C134.885 27.1335 135.574 26.9489 136.403 26.9489C137.16 26.9489 137.821 27.1146 138.384 27.446C138.952 27.7727 139.393 28.2438 139.705 28.8594C140.022 29.4702 140.179 30.2017 140.174 31.054V38H137.148V31.5938C137.153 30.9214 136.983 30.3982 136.637 30.0241C136.296 29.6501 135.818 29.4631 135.202 29.4631C134.79 29.4631 134.426 29.5507 134.109 29.7259C133.796 29.901 133.55 30.1567 133.37 30.4929C133.195 30.8243 133.105 31.2244 133.1 31.6932Z" fill="#48555B"/>
<g clip-path="url(#clip0_262_910)">
<path d="M38.9688 9H4.03125C2.9621 9 1.93673 9.42472 1.18073 10.1807C0.42472 10.9367 0 11.9621 0 13.0312L0 42.5938C0 43.6629 0.42472 44.6883 1.18073 45.4443C1.93673 46.2003 2.9621 46.625 4.03125 46.625H6.71875C7.07513 46.625 7.41692 46.4834 7.66892 46.2314C7.92093 45.9794 8.0625 45.6376 8.0625 45.2812C8.0625 44.9249 7.92093 44.5831 7.66892 44.3311C7.41692 44.0791 7.07513 43.9375 6.71875 43.9375H4.03125C3.67487 43.9375 3.33308 43.7959 3.08108 43.5439C2.82907 43.2919 2.6875 42.9501 2.6875 42.5938V19.75H40.3125V42.5938C40.3125 42.9501 40.1709 43.2919 39.9189 43.5439C39.6669 43.7959 39.3251 43.9375 38.9688 43.9375H36.2812C35.9249 43.9375 35.5831 44.0791 35.3311 44.3311C35.0791 44.5831 34.9375 44.9249 34.9375 45.2812C34.9375 45.6376 35.0791 45.9794 35.3311 46.2314C35.5831 46.4834 35.9249 46.625 36.2812 46.625H38.9688C40.0379 46.625 41.0633 46.2003 41.8193 45.4443C42.5753 44.6883 43 43.6629 43 42.5938V13.0312C43 11.9621 42.5753 10.9367 41.8193 10.1807C41.0633 9.42472 40.0379 9 38.9688 9ZM2.6875 17.0625V13.0312C2.6875 12.6749 2.82907 12.3331 3.08108 12.0811C3.33308 11.8291 3.67487 11.6875 4.03125 11.6875H38.9688C39.3251 11.6875 39.6669 11.8291 39.9189 12.0811C40.1709 12.3331 40.3125 12.6749 40.3125 13.0312V17.0625H2.6875Z" fill="#00A4E5"/>
<path d="M36.2812 25.125H33.5938C33.2374 25.125 32.8956 24.9834 32.6436 24.7314C32.3916 24.4794 32.25 24.1376 32.25 23.7812C32.25 23.4249 32.3916 23.0831 32.6436 22.8311C32.8956 22.5791 33.2374 22.4375 33.5938 22.4375H36.2812C36.6376 22.4375 36.9794 22.5791 37.2314 22.8311C37.4834 23.0831 37.625 23.4249 37.625 23.7812C37.625 24.1376 37.4834 24.4794 37.2314 24.7314C36.9794 24.9834 36.6376 25.125 36.2812 25.125Z" fill="#00A4E5"/>
<path d="M9.40625 30.5H6.71875C6.36237 30.5 6.02058 30.3584 5.76858 30.1064C5.51657 29.8544 5.375 29.5126 5.375 29.1562C5.375 28.7999 5.51657 28.4581 5.76858 28.2061C6.02058 27.9541 6.36237 27.8125 6.71875 27.8125H9.40625C9.76263 27.8125 10.1044 27.9541 10.3564 28.2061C10.6084 28.4581 10.75 28.7999 10.75 29.1562C10.75 29.5126 10.6084 29.8544 10.3564 30.1064C10.1044 30.3584 9.76263 30.5 9.40625 30.5Z" fill="#00A4E5"/>
<path d="M9.40625 25.125H6.71875C6.36237 25.125 6.02058 24.9834 5.76858 24.7314C5.51657 24.4794 5.375 24.1376 5.375 23.7812C5.375 23.4249 5.51657 23.0831 5.76858 22.8311C6.02058 22.5791 6.36237 22.4375 6.71875 22.4375H9.40625C9.76263 22.4375 10.1044 22.5791 10.3564 22.8311C10.6084 23.0831 10.75 23.4249 10.75 23.7812C10.75 24.1376 10.6084 24.4794 10.3564 24.7314C10.1044 24.9834 9.76263 25.125 9.40625 25.125Z" fill="#00A4E5"/>
<path d="M21.5 52C18.8824 51.9995 16.3548 51.0439 14.3916 49.3125H10.75C10.521 49.3118 10.2959 49.2526 10.0962 49.1404C9.89643 49.0283 9.72869 48.8669 9.60886 48.6717C9.48904 48.4765 9.4211 48.2539 9.41152 48.025C9.40193 47.7961 9.45101 47.5686 9.55409 47.3641L11.1531 44.1525C10.8857 43.2082 10.7501 42.2315 10.75 41.25C10.75 39.1239 11.3805 37.0455 12.5617 35.2776C13.7429 33.5098 15.4219 32.1319 17.3862 31.3183C19.3505 30.5047 21.5119 30.2918 23.5972 30.7066C25.6825 31.1214 27.598 32.1452 29.1014 33.6486C30.6048 35.152 31.6287 37.0675 32.0435 39.1528C32.4583 41.2381 32.2454 43.3995 31.4317 45.3639C30.6181 47.3282 29.2402 49.0071 27.4724 50.1883C25.7046 51.3695 23.6262 52 21.5 52ZM12.9269 46.625H14.9291C15.1021 46.623 15.2736 46.6566 15.4331 46.7236C15.5926 46.7906 15.7367 46.8897 15.8563 47.0147C17.1857 48.3178 18.9251 49.1207 20.7791 49.2871C22.6332 49.4536 24.4878 48.9733 26.028 47.9278C27.5683 46.8823 28.6993 45.3361 29.2291 43.5515C29.7589 41.767 29.6549 39.8541 28.9346 38.1375C28.2144 36.4209 26.9223 35.0065 25.2778 34.1342C23.6332 33.262 21.7375 32.9857 19.9124 33.3523C18.0873 33.7188 16.4453 34.7057 15.2651 36.1452C14.0848 37.5848 13.4391 39.3885 13.4375 41.25C13.4404 42.132 13.5856 43.0077 13.8675 43.8434C13.9254 44.0118 13.9493 44.1899 13.9377 44.3675C13.9262 44.5451 13.8795 44.7187 13.8003 44.8781L12.9269 46.625Z" fill="#00A4E5"/>
<path d="M24.1875 39.9062H22.8438V38.5625C22.8438 38.2061 22.7022 37.8643 22.4502 37.6123C22.1982 37.3603 21.8564 37.2188 21.5 37.2188C21.1436 37.2188 20.8018 37.3603 20.5498 37.6123C20.2978 37.8643 20.1562 38.2061 20.1562 38.5625V39.9062H18.8125C18.4561 39.9062 18.1143 40.0478 17.8623 40.2998C17.6103 40.5518 17.4688 40.8936 17.4688 41.25C17.4688 41.6064 17.6103 41.9482 17.8623 42.2002C18.1143 42.4522 18.4561 42.5938 18.8125 42.5938H20.1562V43.9375C20.1562 44.2939 20.2978 44.6357 20.5498 44.8877C20.8018 45.1397 21.1436 45.2812 21.5 45.2812C21.8564 45.2812 22.1982 45.1397 22.4502 44.8877C22.7022 44.6357 22.8438 44.2939 22.8438 43.9375V42.5938H24.1875C24.5439 42.5938 24.8857 42.4522 25.1377 42.2002C25.3897 41.9482 25.5312 41.6064 25.5312 41.25C25.5312 40.8936 25.3897 40.5518 25.1377 40.2998C24.8857 40.0478 24.5439 39.9062 24.1875 39.9062Z" fill="#48555B"/>
</g>
<defs>
<clipPath id="clip0_262_910">
<rect width="43" height="43" fill="white" transform="translate(0 9)"/>
</clipPath>
</defs>
</svg>
