<svg width="410" height="365" viewBox="0 0 410 365" fill="none" xmlns="http://www.w3.org/2000/svg">
<path d="M400.809 319.484H368.989V319.736H400.809V319.484Z" fill="#EBEBEB"/>
<path d="M285.326 316.748H251.651V317H285.326V316.748Z" fill="#EBEBEB"/>
<path d="M410 328.844H347.068V329.096H410V328.844Z" fill="#EBEBEB"/>
<path d="M19.5766 327.15H0.187759V327.402H19.5766V327.15Z" fill="#EBEBEB"/>
<path d="M59.0852 327.15H28.5509V327.402H59.0852V327.15Z" fill="#EBEBEB"/>
<path d="M193.396 322.895H138.404V323.147H193.396V322.895Z" fill="#EBEBEB"/>
<path d="M226.775 174.241L376.346 174.241V16.4066L226.775 16.4066L226.775 174.241Z" fill="#E6E6E6"/>
<path d="M210.747 11.2988H386.029C386.849 11.2988 387.514 11.9641 387.514 12.7836C387.514 13.6031 386.849 14.2684 386.029 14.2684H210.747C209.926 14.2684 209.262 13.6031 209.262 12.7836C209.262 11.9641 209.926 11.2988 210.747 11.2988Z" fill="#E6E6E6"/>
<path d="M220.429 174.241L373.381 174.241V16.4066L220.429 16.4066L220.429 174.241Z" fill="#F0F0F0"/>
<path d="M226.775 180.139L376.346 180.139V174.242L226.775 174.242V180.139Z" fill="#E6E6E6"/>
<path d="M209.856 180.139L362.808 180.139V174.242L209.856 174.242V180.139Z" fill="#F0F0F0"/>
<path d="M364.496 165.356V25.292L229.314 25.292L229.314 165.356L364.496 165.356Z" fill="#FAFAFA"/>
<path d="M333.809 165.357L281.659 25.292H257.04L309.19 165.357H333.809Z" fill="white"/>
<path d="M303.902 165.357L251.752 25.292H242.155L294.305 165.357H303.902Z" fill="white"/>
<path d="M230.442 165.356L230.442 25.292H229.315L229.315 165.356H230.442Z" fill="#E6E6E6"/>
<g opacity="0.6">
<path d="M264.445 151.409L213.541 151.412L216.433 8.44541L267.337 8.44238L264.445 151.409Z" fill="#F0F0F0"/>
<path d="M284.275 151.408L244.616 151.411L247.508 8.44293L287.166 8.44092L284.275 151.408Z" fill="#E6E6E6"/>
<path d="M315.35 151.406L264.445 151.409L267.337 8.44199L318.242 8.43896L315.35 151.406Z" fill="#F0F0F0"/>
<path d="M335.179 151.405L295.521 151.408L298.413 8.44L338.071 8.43799L335.179 151.405Z" fill="#E6E6E6"/>
<path d="M366.255 151.403L315.35 151.406L318.242 8.43906L369.146 8.43604L366.255 151.403Z" fill="#F0F0F0"/>
</g>
<path d="M169.707 152.269L169.707 0.396484L33.627 0.396484L33.627 152.269L169.707 152.269Z" fill="#EBEBEB"/>
<path d="M170.939 152.268L170.939 0.395996L169.707 0.395996L169.707 152.268H170.939Z" fill="#E0E0E0"/>
<path d="M43.7065 142.188H159.627L159.627 10.4761H43.7065L43.7065 142.188Z" fill="#F5F5F5"/>
<path d="M105.952 146.556H138.596V100.86H105.952V146.556Z" fill="white"/>
<path d="M66.6754 150.548H99.3195L101.667 104.852H69.0231L66.6754 150.548Z" fill="white"/>
<path d="M38.2408 93.9599H70.8848L73.2325 48.2632H40.5884L38.2408 93.9599Z" fill="white"/>
<path d="M138.146 52.3179L163.249 53.4185L164.789 18.2795L139.687 17.1789L138.146 52.3179Z" fill="white"/>
<path d="M38.2427 38.2017L63.345 39.3022L64.8856 4.16326L39.7833 3.06267L38.2427 38.2017Z" fill="white"/>
<path d="M164.257 58.9098L139.132 58.5781L138.668 93.7488L163.793 94.0804L164.257 58.9098Z" fill="white"/>
<path d="M80.4185 92.179L133.644 90.6401L131.49 16.1344L78.2644 17.6732L80.4185 92.179Z" fill="white"/>
<path d="M66.2202 309.884L66.2202 170.377H10.2611L10.2611 309.884H66.2202Z" fill="#F0F0F0"/>
<path d="M63.1487 214.942L63.1487 173.876H13.3334L13.3334 214.942H63.1487Z" fill="#E6E6E6"/>
<path d="M63.1486 259.694L63.1486 218.628H13.3333L13.3333 259.694H63.1486Z" fill="#E6E6E6"/>
<path d="M63.1487 304.447L63.1487 263.381H13.3334L13.3334 304.447H63.1487Z" fill="#E6E6E6"/>
<path d="M32.927 214.943L32.927 173.877H13.3325L13.3325 214.943H32.927Z" fill="#E0E0E0"/>
<path d="M32.927 259.695L32.927 218.629H13.3325L13.3325 259.695H32.927Z" fill="#E0E0E0"/>
<path d="M32.9271 304.447L32.9271 263.381H13.3326L13.3326 304.447H32.9271Z" fill="#E0E0E0"/>
<path d="M81.414 309.884L81.414 170.377H66.2194L66.2194 309.884H81.414Z" fill="#F5F5F5"/>
<path d="M126.046 309.884L126.046 170.377H70.0867L70.0867 309.884H126.046Z" fill="#F0F0F0"/>
<path d="M122.974 214.942L122.974 173.876H73.159V214.942H122.974Z" fill="#E6E6E6"/>
<path d="M122.974 259.694L122.974 218.628H73.159V259.694H122.974Z" fill="#E6E6E6"/>
<path d="M122.974 304.447L122.974 263.381H73.159V304.447H122.974Z" fill="#E6E6E6"/>
<path d="M92.7526 214.942L92.7526 173.876H73.1581V214.942H92.7526Z" fill="#E0E0E0"/>
<path d="M92.7526 259.694L92.7526 218.628H73.1581V259.694H92.7526Z" fill="#E0E0E0"/>
<path d="M92.7527 304.446L92.7527 263.38H73.1582V304.446H92.7527Z" fill="#E0E0E0"/>
<path d="M141.24 309.884L141.24 170.377H126.045L126.045 309.884H141.24Z" fill="#F5F5F5"/>
<path d="M54.1833 251.626C54.1833 256.082 48.4236 259.695 41.3192 259.695C34.2148 259.695 28.4551 256.082 28.4551 251.626H54.1833Z" fill="#F0F0F0"/>
<path d="M54.1833 245.594C54.1833 250.051 48.4236 253.663 41.3192 253.663C34.2148 253.663 28.4551 250.051 28.4551 245.594H54.1833Z" fill="#F0F0F0"/>
<path d="M115.642 206.874C115.642 211.33 108.441 214.943 99.5584 214.943C90.6759 214.943 83.4748 211.33 83.4748 206.874H115.642Z" fill="#FAFAFA"/>
<path d="M115.642 200.842C115.642 205.299 108.441 208.911 99.5584 208.911C90.6759 208.911 83.4748 205.299 83.4748 200.842H115.642Z" fill="#FAFAFA"/>
<path d="M76.5396 304.447H116.989V269.301H76.5396V304.447Z" fill="#F0F0F0"/>
<path d="M122.974 269.301H116.989V304.447H122.974V269.301Z" fill="#E0E0E0"/>
<path d="M16.7141 214.943H57.1631L57.1631 179.797H16.7141L16.7141 214.943Z" fill="#F0F0F0"/>
<path d="M63.1484 179.797H57.1629V214.943H63.1484V179.797Z" fill="#E0E0E0"/>
<path d="M217.073 309.882H224.921V236.041H217.073V309.882Z" fill="#E6E6E6"/>
<path d="M214.973 309.882H219.596V236.041H214.973V309.882Z" fill="#F0F0F0"/>
<path d="M324.999 236.042H213.541V244.22H324.999V236.042Z" fill="#F0F0F0"/>
<path d="M374.835 309.882H382.684V236.041H374.835V309.882Z" fill="#E6E6E6"/>
<path d="M373.364 309.882H377.987V236.041H373.364V309.882Z" fill="#F0F0F0"/>
<path d="M384.087 236.042H328.357V244.22H384.087V236.042Z" fill="#E6E6E6"/>
<path d="M325.668 309.882H333.516V236.041H325.668V309.882Z" fill="#E6E6E6"/>
<path d="M323.567 309.882H328.189V236.041H323.567V309.882Z" fill="#F0F0F0"/>
<path d="M210 364.981C317.939 364.981 405.44 359.871 405.44 353.568C405.44 347.264 317.939 342.154 210 342.154C102.061 342.154 14.5599 347.264 14.5599 353.568C14.5599 359.871 102.061 364.981 210 364.981Z" fill="#F5F5F5"/>
<path d="M259.201 342.88L244.943 341.235V259.476H232.731V341.235L218.474 342.88L217.236 346.934H260.438L259.201 342.88Z" fill="#263238"/>
<path opacity="0.4" d="M259.201 342.88L244.943 341.235V259.476H232.731V341.235L218.474 342.88L217.236 346.934H260.438L259.201 342.88Z" fill="#00A4E5"/>
<path d="M235.15 149.457C256.315 149.457 277.48 149.457 298.645 149.457C287.761 183.892 282.23 218.972 282.255 253.407C261.09 253.407 239.926 253.407 218.761 253.407C218.735 218.972 224.266 183.892 235.15 149.457Z" fill="#00A4E5"/>
<path opacity="0.3" d="M235.15 149.457C256.315 149.457 277.48 149.457 298.645 149.457C287.761 183.892 282.23 218.972 282.255 253.407C261.09 253.407 239.926 253.407 218.761 253.407C218.735 218.972 224.266 183.892 235.15 149.457Z" fill="black"/>
<path d="M231.337 149.457C252.502 149.457 273.667 149.457 294.833 149.457C283.95 183.892 278.419 218.972 278.444 253.407C257.279 253.407 236.114 253.407 214.949 253.407C214.924 218.972 220.454 183.892 231.337 149.457Z" fill="#00A4E5"/>
<path d="M267.729 263.16H177.836C181.612 254.939 188.485 249.895 195.91 249.895H261.636L267.729 263.16Z" fill="#00A4E5"/>
<path d="M285.989 263.16H242.585C246.361 254.939 253.234 249.895 260.659 249.895H276.02C283.447 249.896 287.123 254.185 285.989 263.16Z" fill="#00A4E5"/>
<path opacity="0.3" d="M285.989 263.16H242.585C246.361 254.939 253.234 249.895 260.659 249.895H276.02C283.447 249.896 287.123 254.185 285.989 263.16Z" fill="black"/>
<path d="M197.346 338.521L189.212 339.589L183.92 321.162L192.054 320.094L197.346 338.521Z" fill="#FFC3BD"/>
<path d="M188.192 337.464L197.32 336.264C197.652 336.221 197.933 336.418 197.996 336.74L199.387 343.904C199.531 344.647 198.921 345.448 198.154 345.536C194.969 345.899 193.426 345.911 189.412 346.438C186.942 346.763 178.449 347.949 175.009 347.967C171.645 347.986 171.649 344.584 173.105 344.269C179.634 342.852 184.801 340.249 186.858 338.146C187.229 337.768 187.706 337.527 188.192 337.464Z" fill="#263238"/>
<path opacity="0.2" d="M192.057 320.099L183.92 321.168L186.652 330.665L194.788 329.596L192.057 320.099Z" fill="black"/>
<path d="M224.035 220.375C224.035 220.375 160.27 224.94 162.844 248.298C166.542 281.874 181.028 325.961 181.028 325.961L195.821 323.419C195.821 323.419 189.588 282.746 186.299 256.584C202.21 249.988 245.348 256.304 250.415 242.567C254.56 231.328 252.319 220.375 252.319 220.375H224.035Z" fill="#263238"/>
<path opacity="0.3" d="M192.968 239.821C192.968 239.821 194.515 246.763 195.577 254.302C195.532 254.313 195.477 254.313 195.432 254.324C194.88 254.402 194.327 254.49 193.796 254.578C193.52 254.633 193.233 254.678 192.968 254.733C192.647 254.789 192.338 254.855 192.028 254.911C190.669 255.187 189.397 255.507 188.237 255.883C187.939 255.972 187.663 256.071 187.387 256.171C187.011 256.293 186.646 256.436 186.303 256.58C186.679 259.576 187.966 263.544 187.977 266.992C173.79 250.233 185.483 239.821 192.968 239.821Z" fill="black"/>
<path d="M198.095 326.781L180.749 329.059L178.406 322.819L195.78 318.928L198.095 326.781Z" fill="#00A4E5"/>
<path d="M185.498 339.257C186.247 339.158 187.058 338.895 187.624 338.683C187.695 338.657 187.743 338.591 187.747 338.515C187.751 338.44 187.711 338.369 187.645 338.335C187.361 338.189 184.854 336.919 183.914 337.439C183.695 337.559 183.567 337.764 183.543 338.033C183.503 338.475 183.629 338.811 183.915 339.028C184.281 339.307 184.869 339.34 185.498 339.257ZM187.068 338.477C185.653 338.958 184.576 339.054 184.148 338.726C183.97 338.591 183.897 338.375 183.925 338.067C183.938 337.925 183.994 337.831 184.099 337.773C184.605 337.493 186.047 338 187.068 338.477Z" fill="#00A4E5"/>
<path d="M187.583 338.693C187.612 338.688 187.642 338.677 187.667 338.66C187.72 338.623 187.751 338.56 187.748 338.494C187.743 338.394 187.619 336.033 186.695 335.351C186.446 335.168 186.164 335.114 185.857 335.192C185.489 335.285 185.272 335.521 185.246 335.855C185.175 336.766 186.609 338.302 187.481 338.678C187.515 338.694 187.549 338.698 187.583 338.693ZM186.04 335.546C186.197 335.525 186.338 335.562 186.468 335.658C187.02 336.065 187.262 337.395 187.341 338.169C186.556 337.665 185.58 336.483 185.628 335.885C185.636 335.771 185.681 335.631 185.952 335.563C185.982 335.555 186.012 335.55 186.04 335.546Z" fill="#00A4E5"/>
<path d="M232.862 157.322C232.151 160.483 231.304 163.427 230.446 166.452C229.561 169.449 228.615 172.431 227.574 175.389C226.55 178.353 225.424 181.296 224.22 184.221C223.02 187.15 221.68 190.048 220.239 192.929L219.983 193.44L219.877 193.589C218.787 195.127 217.721 196.027 216.698 196.794C215.672 197.55 214.689 198.13 213.719 198.656C211.781 199.708 209.868 200.456 207.972 201.149C206.066 201.813 204.169 202.374 202.258 202.844C200.332 203.308 198.455 203.703 196.439 203.972L194.572 198.11L199.352 195.421C200.937 194.52 202.504 193.622 203.996 192.689C205.496 191.781 206.929 190.805 208.17 189.856C208.787 189.383 209.357 188.896 209.773 188.449C210.186 188.015 210.484 187.59 210.425 187.554L210.064 188.214C211.155 185.532 212.164 182.786 213.142 180.005C214.088 177.209 215.01 174.393 215.887 171.548C216.747 168.698 217.602 165.841 218.42 162.968C219.258 160.121 220.029 157.171 220.79 154.401L232.862 157.322Z" fill="#FFC3BD"/>
<path d="M219.536 155.138C212.872 162.786 208.465 173.485 208.465 173.485L225.885 183.979C230.916 177.848 237.191 161.627 237.449 156.153C237.845 147.745 226.716 146.897 219.536 155.138Z" fill="#00A4E5"/>
<path opacity="0.5" d="M219.536 155.138C212.872 162.786 208.465 173.485 208.465 173.485L225.885 183.979C230.916 177.848 237.191 161.627 237.449 156.153C237.845 147.745 226.716 146.897 219.536 155.138Z" fill="white"/>
<path opacity="0.5" d="M225.674 162.94C221.872 166.134 219.175 172.778 217.991 179.222L225.884 183.976C228.371 180.947 231.168 175.453 233.39 169.992C231.611 164.576 229.035 160.11 225.674 162.94Z" fill="#00A4E5"/>
<path d="M223.211 343.426H215.016L211.262 324.447H219.457L223.211 343.426Z" fill="#FFC3BD"/>
<path d="M214.762 341.433H223.969C224.304 341.433 224.557 341.666 224.577 341.993L225.023 349.277C225.07 350.032 224.361 350.748 223.589 350.735C220.383 350.679 218.852 350.491 214.803 350.491C212.312 350.491 203.862 350.75 200.423 350.75C197.058 350.75 197.081 347.349 198.539 347.041C205.076 345.66 211.036 343.755 213.351 341.937C213.767 341.61 214.271 341.433 214.762 341.433Z" fill="#263238"/>
<path opacity="0.2" d="M219.46 324.453H211.261L213.2 334.235H221.398L219.46 324.453Z" fill="black"/>
<path d="M240.091 220.375C240.091 220.375 186.057 224.938 187.387 248.401C188.842 274.095 209.643 331.873 209.643 331.873H224.653C224.653 331.873 217.866 279.598 214.578 253.437C229.807 253.437 261.404 256.305 266.471 242.567C270.616 231.328 267.915 220.793 267.915 220.793L240.091 220.375Z" fill="#263238"/>
<path d="M225.512 332.112L207.507 332.929L206.121 325.19L224.961 325.259L225.512 332.112Z" fill="#00A4E5"/>
<path d="M211.857 342.86C212.614 342.86 213.451 342.704 214.041 342.567C214.115 342.55 214.171 342.492 214.185 342.418C214.199 342.343 214.168 342.269 214.107 342.225C213.845 342.043 211.525 340.457 210.524 340.85C210.292 340.941 210.138 341.128 210.08 341.392C209.983 341.825 210.062 342.174 210.319 342.428C210.644 342.751 211.222 342.86 211.857 342.86ZM213.515 342.291C212.049 342.583 210.97 342.538 210.587 342.157C210.428 342 210.384 341.777 210.452 341.474C210.483 341.335 210.55 341.25 210.662 341.206C211.202 340.995 212.564 341.685 213.515 342.291Z" fill="#00A4E5"/>
<path d="M213.997 342.573C214.026 342.573 214.056 342.566 214.084 342.551C214.143 342.521 214.181 342.464 214.187 342.397C214.195 342.297 214.38 339.94 213.552 339.143C213.329 338.929 213.056 338.839 212.743 338.877C212.366 338.923 212.12 339.128 212.05 339.455C211.861 340.349 213.083 342.06 213.9 342.545C213.93 342.565 213.963 342.573 213.997 342.573ZM212.877 339.251C213.035 339.251 213.17 339.307 213.287 339.42C213.781 339.894 213.848 341.245 213.825 342.023C213.113 341.421 212.299 340.122 212.423 339.535C212.446 339.424 212.51 339.292 212.787 339.257C212.819 339.252 212.849 339.251 212.877 339.251Z" fill="#00A4E5"/>
<path d="M198.446 198.316L189.287 196.019L189.928 205.816C189.928 205.816 198.981 205.841 199.774 203.148L198.446 198.316Z" fill="#FFC3BD"/>
<path d="M182.319 200.798L184.479 206.947L189.928 205.817L189.287 196.019L182.319 200.798Z" fill="#FFC3BD"/>
<path d="M224.085 220.794H267.915C268.224 216.881 267.318 204.147 267.992 187.93C268.446 177.042 269.617 164.584 272.348 152.181C272.547 151.296 272.746 150.423 272.956 149.539C272.956 149.539 270.734 149.086 267.551 148.622C264.909 148.235 261.592 147.837 258.343 147.683C252.749 147.417 244.647 147.241 239.717 147.683C236.854 147.949 234.057 148.423 231.824 148.855C228.973 149.429 227.292 149.921 227.292 149.921C227.292 149.921 216.49 174.709 224.085 220.794Z" fill="#00A4E5"/>
<path opacity="0.5" d="M224.085 220.794H267.915C268.224 216.881 267.318 204.147 267.992 187.93C268.446 177.042 269.617 164.584 272.348 152.181C272.547 151.296 272.746 150.423 272.956 149.539C272.956 149.539 270.734 149.086 267.551 148.622C264.909 148.235 261.592 147.837 258.343 147.683C252.749 147.417 244.647 147.241 239.717 147.683C236.854 147.949 234.057 148.423 231.824 148.855C228.973 149.429 227.292 149.921 227.292 149.921C227.292 149.921 216.49 174.709 224.085 220.794Z" fill="white"/>
<path opacity="0.5" d="M267.991 187.933C268.445 177.045 269.616 164.587 272.347 152.185C269.418 151.931 264.41 152.218 263.581 156.95C262.685 162.034 262.623 173.91 267.991 187.933Z" fill="#00A4E5"/>
<path d="M275.744 155.211C276.16 155.989 276.455 156.575 276.788 157.249C277.11 157.902 277.402 158.56 277.696 159.215C278.28 160.529 278.834 161.849 279.361 163.182C280.401 165.851 281.318 168.575 282.073 171.37C282.839 174.16 283.457 177.017 283.871 179.947C284.297 182.876 284.503 185.882 284.403 188.957L284.396 189.245L284.365 189.815C284.343 190.222 284.273 190.619 284.199 191.017C284.036 191.8 283.782 192.546 283.47 193.199C282.845 194.519 282.052 195.524 281.268 196.315C279.686 197.876 278.141 198.787 276.663 199.56C273.705 201.074 270.866 201.879 268.06 202.602C265.247 203.274 262.469 203.756 259.689 204.099C256.895 204.435 254.172 204.665 251.307 204.704L250.478 198.607C255.46 197.135 260.575 195.577 265.211 193.676C267.522 192.747 269.755 191.657 271.484 190.512C272.336 189.95 273.036 189.319 273.303 188.916C273.431 188.72 273.434 188.619 273.36 188.709C273.329 188.752 273.272 188.849 273.238 188.972C273.212 189.036 273.209 189.102 273.189 189.173C273.182 189.191 273.183 189.282 273.18 189.239L273.165 189.022C272.895 184.396 271.763 179.586 270.264 174.846C269.497 172.477 268.648 170.112 267.713 167.774C267.253 166.603 266.769 165.44 266.263 164.292L265.491 162.589L264.755 161.003L275.744 155.211Z" fill="#FFC3BD"/>
<path d="M272.955 149.539C264.976 147.019 259.87 153.399 262.077 164.463C264.285 175.527 267.123 179.642 267.123 179.642L285.792 177C284.256 166.154 281.124 152.12 272.955 149.539Z" fill="#00A4E5"/>
<path opacity="0.5" d="M272.955 149.539C264.976 147.019 259.87 153.399 262.077 164.463C264.285 175.527 267.123 179.642 267.123 179.642L285.792 177C284.256 166.154 281.124 152.12 272.955 149.539Z" fill="white"/>
<path d="M257.943 126.79L252.958 130.925L246.171 136.562C246.37 137.479 246.525 138.408 246.602 139.303C246.967 142.984 246.017 146.334 240.6 147.615C240.6 147.615 235.276 152.594 245.928 152.744C256.582 152.893 259.059 147.726 259.059 147.726C255.003 143.725 256.562 132.793 257.943 126.79Z" fill="#FFC3BD"/>
<path d="M258.307 144.744C258.307 144.744 252.734 150.563 245.396 152.747C248.228 153.259 250.156 155.862 250.201 158.377C255.472 156.81 261.729 148.885 261.561 147.413C259.967 146.309 258.307 144.744 258.307 144.744Z" fill="white"/>
<path d="M243.035 146.383C243.035 146.383 238.058 150.562 245.396 152.747C242.563 153.259 240.667 154.715 239.7 157.824C235.719 153.08 238.006 148.271 238.884 147.078C240.818 146.916 243.035 146.383 243.035 146.383Z" fill="white"/>
<path opacity="0.2" d="M246.171 136.562C246.371 137.479 246.525 138.408 246.603 139.303C249.134 138.794 252.516 136.097 252.87 133.51C253.003 132.538 253.025 131.598 252.959 130.924L246.171 136.562Z" fill="black"/>
<path d="M239.669 108.378C236.316 111.141 236.928 121.867 240.135 120.881C243.343 119.895 245.188 103.832 239.669 108.378Z" fill="#263238"/>
<path d="M259.999 118.156C258.266 126.126 257.657 130.863 252.95 134.5C245.87 139.97 236.486 135.111 235.799 126.868C235.18 119.45 238.118 107.664 246.502 105.407C254.761 103.184 261.733 110.187 259.999 118.156Z" fill="#FFC3BD"/>
<path d="M257.342 123.624C256.053 122.036 255.96 117.983 256.881 116.694C255.499 115.588 254.122 112.044 255.193 110.661C252.488 110.477 238.508 113.838 235.719 103.797C237.168 104.257 240.102 103.797 240.102 103.797C240.102 103.797 237.259 99.068 242.295 97.6558C243.032 100.051 249.111 100.293 252.121 100.174C258.306 99.9278 265.351 102.501 262.5 107.297C267.046 109.263 267.783 118.026 257.342 123.624Z" fill="#263238"/>
<path d="M261.426 106.975C261.426 106.975 264.512 107.62 263.913 103.682C266.424 105.847 264.811 109.785 261.426 106.975Z" fill="#263238"/>
<path d="M261.296 125.545C260.127 127.08 258.417 127.991 256.919 128.255C254.667 128.653 253.982 126.58 254.978 124.567C255.874 122.756 258.127 120.367 260.211 120.883C262.263 121.393 262.634 123.79 261.296 125.545Z" fill="#FFC3BD"/>
<path d="M256.651 120.813C256.651 120.813 255.269 125.768 252.583 128.945C249.897 132.123 247.247 132.746 244.354 132.691C241.461 132.636 241.902 128.638 241.902 128.638L240.484 128.315C240.484 128.315 240.631 133.237 237.814 131.156C237.199 130.701 236.614 129.251 236.23 128.113C235.936 127.24 235.766 126.333 235.72 125.413C235.036 126.498 234.783 131.321 235.833 133.619C236.57 135.231 238.546 136.619 240.347 137.189C243.356 138.14 247.729 138.094 250.944 136.822C256.091 134.784 256.836 129.847 257.02 127.023C257.205 124.199 257.988 120.811 257.988 120.811H256.651V120.813Z" fill="#263238"/>
<path d="M246.351 118.885C246.25 119.538 245.82 120.027 245.391 119.977C244.961 119.925 244.695 119.355 244.796 118.701C244.897 118.047 245.326 117.559 245.756 117.609C246.185 117.66 246.451 118.232 246.351 118.885Z" fill="#263238"/>
<path d="M238.932 118.003C238.831 118.657 238.401 119.145 237.972 119.094C237.543 119.043 237.276 118.472 237.377 117.818C237.478 117.165 237.907 116.676 238.337 116.726C238.766 116.779 239.032 117.35 238.932 118.003Z" fill="#263238"/>
<path d="M241.193 118.266C241.193 118.266 239.635 121.437 238.094 122.927C239.008 123.905 240.736 123.568 240.736 123.568L241.193 118.266Z" fill="#ED847E"/>
<path d="M240.747 126.794C243.326 127.15 244.991 125.739 245.066 125.674C245.147 125.604 245.156 125.481 245.086 125.401C245.017 125.319 244.894 125.311 244.813 125.381C244.794 125.397 242.901 127.005 240.091 126.268C239.986 126.239 239.881 126.303 239.854 126.407C239.827 126.511 239.889 126.616 239.993 126.644C240.251 126.711 240.503 126.761 240.747 126.794Z" fill="#263238"/>
<path d="M250.562 114.836C250.624 114.822 250.683 114.793 250.734 114.747C250.895 114.605 250.909 114.359 250.767 114.199C249.356 112.613 247.578 112.902 247.504 112.915C247.301 112.93 247.151 113.152 247.187 113.363C247.223 113.575 247.424 113.716 247.635 113.68C247.708 113.669 249.078 113.469 250.185 114.715C250.284 114.824 250.429 114.865 250.562 114.836Z" fill="#263238"/>
<path d="M236.487 113.247C236.606 113.282 236.74 113.259 236.843 113.173C238.201 112.044 239.596 112.418 239.61 112.421C239.817 112.479 240.031 112.358 240.089 112.152C240.146 111.946 240.027 111.732 239.822 111.674L239.82 111.673C239.746 111.653 238.014 111.189 236.347 112.575C236.182 112.712 236.16 112.957 236.297 113.121C236.348 113.185 236.416 113.226 236.487 113.247Z" fill="#263238"/>
<path d="M252.009 198.256L244.447 198.251L248.109 206.314C248.109 206.314 255.557 206.204 255.181 202.369L252.009 198.256Z" fill="#FFC3BD"/>
<path d="M237.229 203.45L241.105 208.685L248.109 206.314L244.446 198.251L237.229 203.45Z" fill="#FFC3BD"/>
<path d="M308.13 352.208H311.812V211.836H308.13V352.208Z" fill="#00A4E5"/>
<path d="M329.855 352.208H333.537V211.836H329.855V352.208Z" fill="#00A4E5"/>
<path opacity="0.2" d="M329.855 352.208H333.537V211.836H329.855V352.208Z" fill="black"/>
<path d="M99.0674 352.208H102.75L102.75 211.836H99.0674L99.0674 352.208Z" fill="#00A4E5"/>
<path opacity="0.2" d="M99.0677 211.837H102.75V306.15L99.0677 297.921V211.837Z" fill="black"/>
<path d="M77.3412 352.208H81.0234L81.0234 211.836H77.3412L77.3412 352.208Z" fill="#00A4E5"/>
<path d="M77.3417 293.947L311.812 293.947V211.837L77.3417 211.837V293.947Z" fill="#00A4E5"/>
<path d="M74.9916 211.837L311.812 211.837V205.844L74.9916 205.844V211.837Z" fill="#00A4E5"/>
<path d="M333.537 211.837H311.812V293.948H333.537V211.837Z" fill="#00A4E5"/>
<path opacity="0.2" d="M333.537 211.837H311.812V293.948H333.537V211.837Z" fill="black"/>
<path d="M335.888 205.843H311.812V211.836H335.888V205.843Z" fill="#00A4E5"/>
<path opacity="0.2" d="M335.888 205.843H311.812V211.836H335.888V205.843Z" fill="black"/>
<path opacity="0.2" d="M77.3411 216.012L333.537 216.012V211.836L77.3411 211.836V216.012Z" fill="black"/>
<path d="M223.988 189.729H136.847C133.53 189.729 130.693 187.014 130.541 183.697L128.238 133.056C128.087 129.738 130.677 127.024 133.995 127.024H221.135C224.453 127.024 227.29 129.738 227.441 133.056L229.745 183.697C229.896 187.015 227.305 189.729 223.988 189.729Z" fill="#00A4E5"/>
<path d="M222.818 189.729H135.677C132.36 189.729 129.522 187.014 129.371 183.697L127.068 133.056C126.917 129.738 129.507 127.024 132.825 127.024H219.965C223.282 127.024 226.12 129.738 226.271 133.056L228.574 183.697C228.726 187.015 226.135 189.729 222.818 189.729Z" fill="#00A4E5"/>
<path opacity="0.2" d="M222.818 189.729H135.677C132.36 189.729 129.522 187.014 129.371 183.697L127.068 133.056C126.917 129.738 129.507 127.024 132.825 127.024H219.965C223.282 127.024 226.12 129.738 226.271 133.056L228.574 183.697C228.726 187.015 226.135 189.729 222.818 189.729Z" fill="white"/>
<path d="M187.079 159.129H170.436V189.729H187.079V159.129Z" fill="#00A4E5"/>
<path d="M169.912 155.861L162.564 205.827H180.566L187.915 155.861H169.912ZM180.486 171.737L179.296 179.811C179.115 181.051 178.056 181.968 176.807 181.968H174.095C172.553 181.968 171.373 180.597 171.595 179.075L172.785 171.001C172.966 169.761 174.024 168.844 175.274 168.844H177.986C179.528 168.844 180.708 170.215 180.486 171.737Z" fill="#00A4E5"/>
<path opacity="0.2" d="M169.912 155.861L162.564 205.827H180.566L187.915 155.861H169.912ZM180.486 171.737L179.296 179.811C179.115 181.051 178.056 181.968 176.807 181.968H174.095C172.553 181.968 171.373 180.597 171.595 179.075L172.785 171.001C172.966 169.761 174.024 168.844 175.274 168.844H177.986C179.528 168.844 180.708 170.215 180.486 171.737Z" fill="white"/>
<path d="M190.826 202.179H159.321L155.452 205.843H199.208L190.826 202.179Z" fill="#00A4E5"/>
<path opacity="0.2" d="M190.826 202.179H159.321L155.452 205.843H199.208L190.826 202.179Z" fill="white"/>
<path d="M97.7703 194.636C95.9912 193.662 96.6 183.933 97.3802 178.388C98.3237 171.683 101.15 159.818 110.114 153.247C114.387 150.114 118.473 147.45 119.188 144.073C120.498 147.071 127.952 168.514 117.323 178.137C108.334 186.274 101.674 184.459 97.7703 194.636Z" fill="#00A4E5"/>
<g opacity="0.2">
<path d="M97.7703 194.636C95.9912 193.662 96.6 183.933 97.3802 178.388C98.3237 171.683 101.15 159.818 110.114 153.247C114.387 150.114 118.473 147.45 119.188 144.073C120.498 147.071 127.952 168.514 117.323 178.137C108.334 186.274 101.674 184.459 97.7703 194.636Z" fill="black"/>
</g>
<path d="M100.104 189.134C102.176 187.979 99.8075 176.679 97.9134 170.244C95.6222 162.464 90.1176 148.712 77.7786 141.193C71.897 137.608 66.3288 134.566 64.8732 130.65C63.7241 134.151 60.0429 161.701 74.9744 172.745C87.6036 182.084 93.5236 177.357 100.104 189.134Z" fill="#00A4E5"/>
<path d="M99.0676 186.611C98.9476 186.611 98.8368 186.533 98.8015 186.411C98.7692 186.297 95.4227 174.795 87.276 158.778C79.71 143.903 69.5493 141.489 69.4465 141.467C69.2983 141.434 69.2046 141.286 69.2368 141.137C69.2691 140.988 69.4122 140.894 69.5665 140.928C69.6703 140.951 80.0749 143.403 87.7679 158.528C95.9398 174.597 99.2984 186.143 99.3327 186.258C99.375 186.406 99.2904 186.558 99.1432 186.6C99.119 186.608 99.0938 186.611 99.0676 186.611Z" fill="white"/>
<path d="M66.9658 151.238C66.8983 151.238 66.8287 151.213 66.7763 151.163C66.6664 151.058 66.6614 150.883 66.7652 150.771C66.8247 150.709 72.7507 144.589 81.0264 148.661C81.1635 148.728 81.2189 148.894 81.1524 149.031C81.0849 149.168 80.9196 149.223 80.7825 149.157C72.8798 145.268 67.2229 151.092 67.1664 151.151C67.112 151.209 67.0384 151.238 66.9658 151.238Z" fill="white"/>
<path d="M77.6204 169.63C77.572 169.63 77.5236 169.618 77.4792 169.592C77.3482 169.514 77.3039 169.345 77.3815 169.214C77.4309 169.129 82.4447 160.806 89.8031 162.85C89.9502 162.892 90.0369 163.043 89.9956 163.19C89.9543 163.337 89.799 163.423 89.6549 163.383C82.6926 161.455 77.9046 169.413 77.8572 169.494C77.8058 169.582 77.7151 169.63 77.6204 169.63Z" fill="white"/>
<path d="M85.6108 155.502C85.4888 155.502 85.3759 155.42 85.3437 155.296C85.3245 155.227 84.8951 153.572 85.6027 152.435C85.9182 151.926 86.4081 151.602 87.0553 151.473C87.2135 151.444 87.3516 151.541 87.3798 151.69C87.4101 151.839 87.3133 151.985 87.1631 152.015C86.6662 152.115 86.3083 152.347 86.0735 152.725C85.4918 153.657 85.8739 155.139 85.8779 155.154C85.9172 155.301 85.8295 155.453 85.6824 155.492C85.6582 155.499 85.634 155.502 85.6108 155.502Z" fill="white"/>
<path d="M113.667 183.977H88.1489L90.4996 205.817H111.318L113.667 183.977Z" fill="#00A4E5"/>
<path opacity="0.7" d="M113.667 183.977H88.1489L90.4996 205.817H111.318L113.667 183.977Z" fill="white"/>
<path d="M315.85 186.026V184.668C315.85 184.062 315.359 183.571 314.753 183.571H301.182C300.576 183.571 300.085 184.062 300.085 184.668V205.844H315.85V203.388C319.282 203.388 321.97 199.575 321.97 194.707C321.97 189.84 319.281 186.026 315.85 186.026ZM315.85 201.178V188.238C317.969 188.238 319.759 191.2 319.759 194.708C319.759 198.214 317.969 201.178 315.85 201.178Z" fill="#00A4E5"/>
<path opacity="0.2" d="M315.85 186.026V184.668C315.85 184.062 315.359 183.571 314.753 183.571H301.182C300.576 183.571 300.085 184.062 300.085 184.668V205.844H315.85V203.388C319.282 203.388 321.97 199.575 321.97 194.707C321.97 189.84 319.281 186.026 315.85 186.026ZM315.85 201.178V188.238C317.969 188.238 319.759 191.2 319.759 194.708C319.759 198.214 317.969 201.178 315.85 201.178Z" fill="white"/>
<path opacity="0.3" d="M315.85 188.238H314.056L315.85 193.212V188.238Z" fill="black"/>
<path opacity="0.3" d="M315.85 203.388H314.056L315.85 204.22V203.388Z" fill="black"/>
</svg>
